<svg xmlns="http://www.w3.org/2000/svg" xmlns:xlink="http://www.w3.org/1999/xlink" width="61.038" height="61.038" viewBox="0 0 61.038 61.038">
  <defs>
    <filter id="Ellipse_56" x="-45" y="-40" width="151.038" height="151.038" filterUnits="userSpaceOnUse">
      <feOffset dy="5" input="SourceAlpha"/>
      <feGaussianBlur stdDeviation="15" result="blur"/>
      <feFlood flood-opacity="0.161"/>
      <feComposite operator="in" in2="blur"/>
      <feComposite in="SourceGraphic"/>
    </filter>
    <clipPath id="clip-path">
      <g transform="matrix(1, 0, 0, 1, 0, 0)" filter="url(#Ellipse_56)">
        <circle id="Ellipse_56-2" data-name="Ellipse 56" cx="30" cy="30" r="30" transform="translate(4940 4337)" fill="#78bf21"/>
      </g>
    </clipPath>
    <filter id="Ellipse_54" x="-45" y="-40" width="151.038" height="151.038" filterUnits="userSpaceOnUse">
      <feOffset dy="5" input="SourceAlpha"/>
      <feGaussianBlur stdDeviation="15" result="blur-2"/>
      <feFlood flood-opacity="0.161"/>
      <feComposite operator="in" in2="blur-2"/>
      <feComposite in="SourceGraphic"/>
    </filter>
    <filter id="Ellipse_55" x="-45" y="-40" width="151.038" height="151.038" filterUnits="userSpaceOnUse">
      <feOffset dy="5" input="SourceAlpha"/>
      <feGaussianBlur stdDeviation="15" result="blur-3"/>
      <feFlood flood-opacity="0.161"/>
      <feComposite operator="in" in2="blur-3"/>
      <feComposite in="SourceGraphic"/>
    </filter>
    <filter id="Path_214" x="17.739" y="15.336" width="28.938" height="36.425" filterUnits="userSpaceOnUse">
      <feOffset dy="3" input="SourceAlpha"/>
      <feGaussianBlur stdDeviation="3" result="blur-4"/>
      <feFlood flood-opacity="0.161"/>
      <feComposite operator="in" in2="blur-4"/>
      <feComposite in="SourceGraphic"/>
    </filter>
  </defs>
  <g id="Arrow_right" data-name="Arrow right" transform="matrix(1, 0.017, -0.017, 1, 1.047, 0)">
    <g id="Mask_Group_4" data-name="Mask Group 4" transform="translate(-4940 -4337)" clip-path="url(#clip-path)">
      <g transform="matrix(1, -0.02, 0.02, 1, 4938.95, 4337.02)" filter="url(#Ellipse_54)">
        <circle id="Ellipse_54-2" data-name="Ellipse 54" cx="30" cy="30" r="30" transform="matrix(1, 0.02, -0.02, 1, 1.05, 0)" fill="#fff"/>
      </g>
      <path id="Path_213" data-name="Path 213" d="M1340,2301.744l7,7-7,7" transform="translate(3628.5 2058.256)" fill="none" stroke="#000" stroke-linecap="round" stroke-linejoin="round" stroke-width="3"/>
      <g transform="matrix(1, -0.02, 0.02, 1, 4938.95, 4337.02)" filter="url(#Ellipse_55)">
        <circle id="Ellipse_55-2" data-name="Ellipse 55" cx="30" cy="30" r="30" transform="matrix(1, 0.02, -0.02, 1, 1.05, 0)" fill="#78bf21" opacity="0"/>
      </g>
      <g transform="matrix(1, -0.02, 0.02, 1, 4938.95, 4337.02)" filter="url(#Path_214)">
        <path id="Path_214-2" data-name="Path 214" d="M1340,2301.744l7,7-7,7" transform="matrix(1, 0.02, -0.02, 1, -1270.48, -2301.29)" fill="none" stroke="#fff" stroke-linecap="round" stroke-linejoin="round" stroke-width="3" opacity="0.005"/>
      </g>
    </g>
  </g>
</svg>
