<?xml version="1.0" standalone="no"?>
<!DOCTYPE svg PUBLIC "-//W3C//DTD SVG 20010904//EN"
 "http://www.w3.org/TR/2001/REC-SVG-20010904/DTD/svg10.dtd">
<svg version="1.0" xmlns="http://www.w3.org/2000/svg"
 width="1200.000000pt" height="113.000000pt" viewBox="0 0 1200.000000 113.000000"
 preserveAspectRatio="xMidYMid meet">

<g transform="translate(0.000000,113.000000) scale(0.100000,-0.100000)"
fill="#0B3954" stroke="none">
<path d="M3905 960 c-702 -26 -1364 -93 -2035 -205 -360 -61 -698 -126 -975
-190 -124 -28 -558 -136 -625 -154 -36 -11 -111 -31 -167 -47 l-103 -27 0
-169 0 -168 6000 0 6000 0 0 25 c0 24 -3 25 -54 25 -78 0 -510 36 -721 61
-342 39 -1073 150 -1380 209 -27 5 -142 25 -255 45 -113 20 -250 44 -305 55
-105 19 -305 56 -490 90 -60 11 -175 31 -255 44 -80 14 -197 35 -260 46 -479
85 -1246 198 -1665 245 -276 31 -478 50 -850 79 -527 41 -1311 56 -1860 36z"/>
</g>
</svg>
