<?xml version="1.0" standalone="no"?>
<!DOCTYPE svg PUBLIC "-//W3C//DTD SVG 20010904//EN"
 "http://www.w3.org/TR/2001/REC-SVG-20010904/DTD/svg10.dtd">
<svg version="1.0" xmlns="http://www.w3.org/2000/svg"
 width="1200.000000pt" height="100.000000pt" viewBox="0 0 1200.000000 100.000000"
 preserveAspectRatio="xMidYMid meet">

<g transform="translate(0.000000,100.000000) scale(0.100000,-0.100000)"
fill="#f1f3f3" stroke="none">
<path d="M11750 969 c-339 -29 -446 -41 -820 -90 -234 -31 -427 -60 -715 -109
-414 -70 -416 -71 -880 -156 -137 -25 -272 -49 -300 -54 -27 -5 -178 -31 -335
-59 -157 -28 -334 -60 -395 -71 -110 -19 -359 -61 -595 -99 -119 -19 -380 -56
-705 -100 -1246 -168 -2591 -214 -3675 -125 -1115 91 -2122 270 -3176 565 -77
21 -144 39 -147 39 -4 0 -7 -160 -7 -355 l0 -355 6000 0 6000 0 0 490 0 490
-77 -1 c-43 -1 -121 -5 -173 -10z"/>
</g>
</svg>
