<svg xmlns="http://www.w3.org/2000/svg" width="348.93" height="249.344" viewBox="0 0 348.93 249.344">
  <path id="Path_1661" data-name="Path 1661" d="M11919.538,2315.91s-13.389,24.649-54.028,37.523c-38.281,12.127-136.018,7.055-207.682,24.683s-86.864,48.149-86.864,48.149l-.179-177.7,1.04-12.907,1.21-4.931,3.079-8.794,6.107-10.555,7.274-9.1,7.167-6.587s4.438-3.163,7.269-5.07,4.079-2.767,12.668-6.75c0,0,3.3-1.349,7.251-2.614s8.753-2.311,8.753-2.311l5.379-1,6.654-.834,5.24-.194h195.658l8.969,1.145,11.006,2.723,8.694,3.26,8.645,3.707,12.617,8.793,8.925,9.348,6.454,9.814,4.054,8.734,2.854,7.833,1.963,12V2274.5Z" transform="translate(-11570.785 -2176.92)" fill="#0b3954"/>
</svg>
